<svg xmlns="http://www.w3.org/2000/svg" viewBox="0 0 58.17 58.17"><defs><style>.cls-1{fill:#0ca47a;}</style></defs><g id="Слой_2" data-name="Слой 2"><g id="Слой_1-2" data-name="Слой 1"><g id="SvgjsG2347"><path class="cls-1" d="M5.37,14.33a.52.52,0,0,1,.38.15.53.53,0,0,1,.13.56l-.08.25-.26.08a.47.47,0,0,1-.17,0A.51.51,0,0,1,5,15.24a.53.53,0,0,1,.38-.91M33.22,39.69l.23.11a.54.54,0,1,1-.47,0l.24-.11M5.37,13.49a1.36,1.36,0,0,0-1,.4,1.38,1.38,0,0,0,0,1.95,1.36,1.36,0,0,0,1,.4,1.31,1.31,0,0,0,.44-.07l8.92,8.91H27.79L32.6,29.9v9.15a1.38,1.38,0,1,0,1.23,0V29.39L28.3,23.86H15.23L6.68,15.31a1.39,1.39,0,0,0-.33-1.42,1.37,1.37,0,0,0-1-.4Z"/><path class="cls-1" d="M17.73,2.62a.54.54,0,0,1,.54.54.55.55,0,0,1-.3.48l-.24.12-.24-.12a.55.55,0,0,1-.3-.48.54.54,0,0,1,.54-.54M37.14,44l.24.12a.55.55,0,0,1,.3.48.54.54,0,0,1-1.08,0,.53.53,0,0,1,.3-.48l.24-.12M17.73,1.78a1.38,1.38,0,0,0-1.38,1.38,1.36,1.36,0,0,0,.77,1.23v11.4l4.64,4.48h8.1l6.67,6.67V43.33a1.38,1.38,0,1,0,2,1.23,1.39,1.39,0,0,0-.77-1.23V26.44l-7.39-7.39h-8.1l-3.92-3.78V4.39a1.36,1.36,0,0,0,.77-1.23,1.38,1.38,0,0,0-1.38-1.38Z"/><path class="cls-1" d="M52.67,14.59a.55.55,0,0,1,.38.16.54.54,0,0,1,.15.38.52.52,0,0,1-.15.38.55.55,0,0,1-.38.16l-.18,0-.25-.08-.08-.26a.53.53,0,0,1,.12-.55.57.57,0,0,1,.39-.16M41.06,47.94l.24.11a.56.56,0,0,1,.3.49.54.54,0,0,1-1.08,0,.56.56,0,0,1,.3-.49l.24-.11M52.67,13.75a1.38,1.38,0,0,0-1.31,1.82l-6.51,6.51v8.25l-4.4,4.41V47.3a1.38,1.38,0,1,0,1.22,0V35.24l4.41-4.4V22.59l6.15-6.15a1.31,1.31,0,0,0,.44.07,1.36,1.36,0,0,0,1-.4,1.39,1.39,0,0,0-1-2.36Z"/><path class="cls-1" d="M9.23,8.61a.54.54,0,0,1,.51.71l-.09.25-.25.09-.17,0a.54.54,0,0,1-.38-.15.55.55,0,0,1-.16-.38.53.53,0,0,1,.16-.38.51.51,0,0,1,.38-.16m7.68,10.91a.54.54,0,1,1-.38.92.52.52,0,0,1-.13-.55l.09-.25.25-.09a.47.47,0,0,1,.17,0M9.23,7.77a1.35,1.35,0,0,0-1,.4,1.38,1.38,0,0,0,0,1.95,1.36,1.36,0,0,0,1,.41,1.32,1.32,0,0,0,.44-.08l2.1,2.1v3.24l3.83,3.83a1.38,1.38,0,1,0,2.28-.54,1.41,1.41,0,0,0-1-.4,1.62,1.62,0,0,0-.44.07L13,15.28V12.05L10.54,9.59A1.37,1.37,0,0,0,9.23,7.77Z"/><path class="cls-1" d="M1.38,26a.54.54,0,0,1,.54.54.55.55,0,0,1-.3.48l-.24.12L1.14,27a.55.55,0,0,1-.3-.48A.54.54,0,0,1,1.38,26M5.91,36a.51.51,0,0,1,.53.53.52.52,0,0,1-.15.38.51.51,0,0,1-.38.16.49.49,0,0,1-.38-.16.51.51,0,0,1-.13-.55l.08-.25.25-.09.18,0M1.38,25.16A1.38,1.38,0,0,0,0,26.54a1.36,1.36,0,0,0,.77,1.23v4.52L4.6,36.12a1.39,1.39,0,0,0,.33,1.42,1.38,1.38,0,1,0,1-2.35,1.31,1.31,0,0,0-.44.07L2,31.78v-4a1.36,1.36,0,0,0,.77-1.23,1.38,1.38,0,0,0-1.38-1.38Z"/><path class="cls-1" d="M44,5.37a.54.54,0,0,1,.54.54.53.53,0,0,1-.3.48L44,6.51l-.23-.12a.53.53,0,0,1-.3-.48A.54.54,0,0,1,44,5.37M41.26,27.31l.24.11a.54.54,0,0,1,.3.49.54.54,0,0,1-1.07,0,.54.54,0,0,1,.3-.49l.23-.11M44,4.53a1.38,1.38,0,0,0-.61,2.61v5.39l-2.75,2.75V26.67a1.4,1.4,0,0,0-.77,1.24,1.38,1.38,0,1,0,2-1.24V15.79L44.63,13V7.14A1.38,1.38,0,0,0,44,4.53Z"/><path class="cls-1" d="M49.52,9.5a.54.54,0,0,1,.53.54.53.53,0,0,1-.3.48l-.23.11-.24-.11a.54.54,0,0,1,.24-1m-3.16,5.9.18,0,.25.09.08.25a.53.53,0,0,1-.12.55.51.51,0,0,1-.38.16.49.49,0,0,1-.38-.16.54.54,0,0,1,0-.76.51.51,0,0,1,.37-.15m3.16-6.74a1.38,1.38,0,0,0-.62,2.61v1.26l-2.09,2.1a1.41,1.41,0,0,0-.45-.07,1.36,1.36,0,0,0-1,.4,1.38,1.38,0,0,0,1,2.35,1.36,1.36,0,0,0,1-.4,1.39,1.39,0,0,0,.33-1.42L50.13,13V11.27a1.38,1.38,0,0,0-.61-2.61Z"/><path class="cls-1" d="M38.51,2.62a.54.54,0,0,1,.54.54.53.53,0,0,1-.3.48l-.24.12-.23-.12A.54.54,0,0,1,38,3.16a.54.54,0,0,1,.54-.54m-13.75,11a.52.52,0,0,1,.48.3l.12.24-.12.24a.53.53,0,0,1-.48.3.55.55,0,0,1-.54-.54.54.54,0,0,1,.54-.54M38.51,1.78a1.38,1.38,0,0,0-.61,2.61V7l-6.52,6.52H26a1.38,1.38,0,1,0-1.24,2A1.39,1.39,0,0,0,26,14.77h5.89l7.24-7.24V4.39a1.37,1.37,0,0,0,.76-1.23,1.38,1.38,0,0,0-1.38-1.38Z"/><path class="cls-1" d="M29.86.84a.55.55,0,0,1,.38.16.51.51,0,0,1,.13.55l-.09.25L30,1.89a.47.47,0,0,1-.17,0,.53.53,0,0,1-.38-.16.55.55,0,0,1-.16-.38A.53.53,0,0,1,29.48,1a.55.55,0,0,1,.38-.16m-5.1,8.65a.53.53,0,0,1,.48.3l.12.24-.12.24a.53.53,0,0,1-.48.3.54.54,0,0,1,0-1.08M29.86,0a1.35,1.35,0,0,0-1,.4,1.38,1.38,0,0,0,0,2,1.36,1.36,0,0,0,1,.41,1.32,1.32,0,0,0,.44-.08l3.22,3.23L30,9.42H26a1.4,1.4,0,0,0-1.24-.77,1.38,1.38,0,1,0,1.24,2h4.51l4.74-4.73L31.17,1.82A1.4,1.4,0,0,0,30.84.4a1.43,1.43,0,0,0-1-.4Z"/><path class="cls-1" d="M23,.84a.53.53,0,0,1,.38.16.51.51,0,0,1,.13.55l-.08.25-.25.09a.57.57,0,0,1-.18,0,.55.55,0,0,1-.38-.16.54.54,0,0,1,0-.76A.57.57,0,0,1,23,.84m3.56,3.55a.55.55,0,0,1,.38.16.54.54,0,0,1,0,.76.55.55,0,0,1-.38.16.53.53,0,0,1-.38-.16A.51.51,0,0,1,26,4.76l.08-.25.25-.09.18,0M23,0a1.36,1.36,0,0,0-1,.4,1.39,1.39,0,0,0,1,2.36,1.32,1.32,0,0,0,.44-.08l1.81,1.81a1.37,1.37,0,0,0,1.3,1.82,1.38,1.38,0,0,0,0-2.76,1.42,1.42,0,0,0-.45.08l-1.8-1.81A1.4,1.4,0,0,0,24,.4,1.41,1.41,0,0,0,23,0Z"/><path class="cls-1" d="M37.54,13.22a.51.51,0,0,1,.38.16.53.53,0,0,1-.38.91l-.18,0-.25-.09L37,13.93a.51.51,0,0,1,.13-.55.53.53,0,0,1,.38-.16m0,6.3a.55.55,0,0,1,.38.16.54.54,0,0,1,0,.76.53.53,0,0,1-.76,0,.51.51,0,0,1-.13-.55l.09-.25.25-.09a.47.47,0,0,1,.17,0m0-7.14a1.37,1.37,0,0,0-1.31,1.82l-1.08,1.08v3.26l1.08,1.08A1.38,1.38,0,0,0,36.56,21a1.4,1.4,0,0,0,1,.41,1.38,1.38,0,0,0,0-2.76,1.62,1.62,0,0,0-.44.07L36.37,18V15.79l.73-.73a1.32,1.32,0,0,0,.44.08,1.38,1.38,0,0,0,0-2.76Z"/><path class="cls-1" d="M3.73,20.1a.54.54,0,0,1,.38.15.55.55,0,0,1,.13.56l-.09.25-.25.08a.51.51,0,0,1-.17,0,.55.55,0,0,1-.54-.54.55.55,0,0,1,.16-.38.54.54,0,0,1,.38-.15m21,8.65a.54.54,0,0,1,0,1.07.54.54,0,0,1-.49-.3l-.11-.23.11-.24a.54.54,0,0,1,.49-.3m-21-9.5a1.39,1.39,0,0,0-1,2.36,1.37,1.37,0,0,0,1,.4,1.31,1.31,0,0,0,.44-.07l8,8H23.52a1.38,1.38,0,0,0,2.62-.61,1.38,1.38,0,0,0-2.62-.62H12.63L5,21.07a1.34,1.34,0,0,0-.33-1.41,1.36,1.36,0,0,0-1-.41Z"/><path class="cls-1" d="M55.42,20.1a.53.53,0,0,1,.38.91.51.51,0,0,1-.38.16.57.57,0,0,1-.18,0L55,21.06l-.08-.25a.53.53,0,0,1,.13-.56.52.52,0,0,1,.38-.15m-5.57,8.58.23.12a.54.54,0,0,1,.31.48.54.54,0,0,1-.54.54.54.54,0,0,1-.54-.54.53.53,0,0,1,.3-.48l.24-.12m5.57-9.43a1.38,1.38,0,0,0-1.31,1.82L49.24,26v2.1a1.36,1.36,0,0,0-.77,1.23,1.38,1.38,0,1,0,2-1.23V26.46L55,21.94a1.31,1.31,0,0,0,.44.07,1.36,1.36,0,0,0,1-.4,1.39,1.39,0,0,0-1-2.36Z"/><path class="cls-1" d="M28.89,32.88a.54.54,0,0,1,.53.54.53.53,0,0,1-.3.48l-.23.12-.24-.12a.54.54,0,0,1,.24-1m0,23.37a.54.54,0,0,1,.54.54.54.54,0,0,1-.54.54.53.53,0,0,1-.48-.3l-.12-.24.12-.23a.54.54,0,0,1,.48-.31m0-24.21a1.38,1.38,0,0,0-.62,2.61V51L21.91,57.4h5.74a1.36,1.36,0,0,0,1.23.77,1.38,1.38,0,1,0-1.23-2H24.86l4.64-4.64V34.65A1.38,1.38,0,0,0,28.89,32Z"/><path class="cls-1" d="M56.79,25.6a.52.52,0,0,1,.38.15.55.55,0,0,1,0,.77.52.52,0,0,1-.38.15.51.51,0,0,1-.17,0l-.25-.08-.09-.25a.57.57,0,0,1,.13-.56.54.54,0,0,1,.38-.15M45.44,50.69l.24.12a.53.53,0,0,1,.3.48.54.54,0,1,1-1.08,0,.53.53,0,0,1,.3-.48l.24-.12M56.79,24.76a1.36,1.36,0,0,0-1,.4,1.39,1.39,0,0,0-.33,1.42l-1.08,1.08V32.8H49.26l-4.43,4.43V50.05a1.4,1.4,0,0,0-.77,1.24,1.38,1.38,0,1,0,2-1.24V37.74L49.77,34h5.86V28.16l.72-.72a1.41,1.41,0,0,0,.45.07,1.36,1.36,0,0,0,1-.4,1.38,1.38,0,0,0-1-2.35Z"/><path class="cls-1" d="M55,37a.54.54,0,0,1,0,1.08.55.55,0,0,1-.48-.3l-.12-.24.12-.24A.53.53,0,0,1,55,37m-3.87,8.81a.53.53,0,0,1,.38.91.54.54,0,0,1-.89-.55l.09-.25.25-.08a.47.47,0,0,1,.17,0M55,36.16a1.36,1.36,0,0,0-1.23.77H50.64l-1.89,1.88v6l1.08,1.08a1.39,1.39,0,0,0,.33,1.42,1.38,1.38,0,1,0,1-2.35,1.31,1.31,0,0,0-.44.07L50,44.32v-5l1.17-1.17h2.64a1.36,1.36,0,0,0,1.23.77,1.38,1.38,0,0,0,0-2.76Z"/><path class="cls-1" d="M40.29,53.91a.54.54,0,0,1,.38.15.55.55,0,0,1,.16.38.53.53,0,0,1-.16.38.53.53,0,0,1-.76,0,.53.53,0,0,1-.13-.55l.09-.25.25-.09a.47.47,0,0,1,.17,0M33,56.19l.24.12a.52.52,0,0,1,.3.48.54.54,0,1,1-.78-.48l.24-.12m-.61-10.5v9.87a1.38,1.38,0,1,0,2,1.23,1.36,1.36,0,0,0-.77-1.23V48.64L39,54a1.37,1.37,0,0,0,1.31,1.82,1.36,1.36,0,0,0,1-.4,1.38,1.38,0,0,0,0-2,1.36,1.36,0,0,0-1-.4,1.31,1.31,0,0,0-.44.07L32.4,45.69Z"/><path class="cls-1" d="M24.76,34.25a.54.54,0,0,1,.24,1l-.24.12-.24-.12a.54.54,0,0,1,.24-1M20.23,53.91l.18,0,.25.09.08.25a.53.53,0,0,1-.12.55.54.54,0,0,1-.77,0,.52.52,0,0,1-.15-.38.51.51,0,0,1,.53-.53m4.53-20.5A1.38,1.38,0,0,0,24.15,36V49.66l-3.48,3.48a1.32,1.32,0,0,0-.44-.08,1.38,1.38,0,1,0,1,2.36A1.4,1.4,0,0,0,21.54,54l3.83-3.83V36a1.38,1.38,0,0,0-.61-2.62Z"/><path class="cls-1" d="M6.48,29.72a.55.55,0,0,1,.38.16.54.54,0,0,1,.13.55l-.09.25-.25.09a.47.47,0,0,1-.17,0,.53.53,0,0,1-.38-.16.54.54,0,0,1,0-.76.55.55,0,0,1,.38-.16M19.66,42.9a.55.55,0,0,1,.38.16.54.54,0,0,1,0,.76.53.53,0,0,1-.76,0,.53.53,0,0,1-.13-.55l.09-.25.25-.09a.47.47,0,0,1,.17,0m-13.18-14a1.36,1.36,0,0,0-1,.41,1.38,1.38,0,0,0,0,1.95,1.35,1.35,0,0,0,1,.4,1.62,1.62,0,0,0,.44-.07L18.35,43a1.38,1.38,0,0,0,.33,1.41,1.4,1.4,0,0,0,1,.41,1.39,1.39,0,0,0,1-2.36,1.41,1.41,0,0,0-1-.4,1.62,1.62,0,0,0-.44.07L7.79,30.7a1.38,1.38,0,0,0-.33-1.41,1.4,1.4,0,0,0-1-.41Z"/><path class="cls-1" d="M16.51,32.87a.53.53,0,0,1,.48.3l.12.24-.12.24a.52.52,0,0,1-.48.3.54.54,0,1,1,0-1.08m4.12,4.06.24.12a.53.53,0,0,1,.3.48.54.54,0,1,1-1.07,0,.53.53,0,0,1,.3-.48l.23-.12M16.51,32a1.38,1.38,0,1,0,1.24,2H20V36.3a1.38,1.38,0,1,0,1.23,0V32.8h-3.5A1.4,1.4,0,0,0,16.51,32Z"/><path class="cls-1" d="M10.61,40.73a.55.55,0,0,1,.38.15.55.55,0,0,1,.12.56l-.08.25-.25.08-.18,0a.55.55,0,0,1-.38-.16.52.52,0,0,1-.15-.38.54.54,0,0,1,.15-.38.56.56,0,0,1,.39-.15m5.5,11.8a.51.51,0,0,1,.17,0l.25.08.09.25a.57.57,0,0,1-.13.56.54.54,0,0,1-.92-.38.55.55,0,0,1,.54-.54m-5.5-12.65a1.39,1.39,0,0,0-1,2.36,1.36,1.36,0,0,0,1,.4,1.41,1.41,0,0,0,.45-.07l7.34,7.35-1.84,1.84a1.39,1.39,0,0,0-.44-.07,1.38,1.38,0,1,0,1.3.94l2.71-2.71L11.91,41.7a1.38,1.38,0,0,0-1.3-1.82Z"/><path class="cls-1" d="M5.1,42.1a.57.57,0,0,1,.39.16.53.53,0,0,1,.12.55l-.08.25-.25.09a.57.57,0,0,1-.18,0A.55.55,0,0,1,4.72,43a.54.54,0,0,1,0-.76.57.57,0,0,1,.38-.16m6.31,6.3a.55.55,0,0,1,.38.16.54.54,0,0,1,0,.76.55.55,0,0,1-.38.16.53.53,0,0,1-.38-.16.51.51,0,0,1-.13-.55l.08-.25.26-.09a.47.47,0,0,1,.17,0M5.1,41.26a1.36,1.36,0,0,0-1,.4A1.39,1.39,0,0,0,5.1,44a1.32,1.32,0,0,0,.44-.08L10.1,48.5a1.4,1.4,0,0,0,.33,1.42,1.38,1.38,0,1,0,1-2.36,1.32,1.32,0,0,0-.44.08L6.41,43.08A1.37,1.37,0,0,0,5.1,41.26Z"/></g></g></g></svg>